External Loads File
version=1
nRows=46
nColumns=13
Range=5.000000e-03-10 seconds
endheader
time 	forceRightX 	forceRightY 	forceRightZ 	pointRightX 	pointRightY 	pointRightZ 	forceLeftX 	forceLeftY 	forceLeftZ 	pointLeftX 	pointLeftY 	pointLeftZ 		
2.505000 -174.584182 1276.301375 -0.000000 0.391567 0.284943 -0.106356 52.754779 -98.173778 -0.000000 0.104713 0.335101 -0.343534
2.510000 -150.129314 1300.760116 -0.000000 0.389642 0.276748 -0.106442 48.029158 -101.615356 -0.000000 0.106990 0.342960 -0.343688
2.515000 -123.257642 1323.176058 -0.000000 0.387505 0.268643 -0.106567 44.465052 -103.611023 -0.000000 0.109654 0.350943 -0.343887
2.520000 -98.471107 1342.492316 -0.000000 0.385138 0.260685 -0.106789 42.181018 -104.017806 -0.000000 0.112658 0.358225 -0.344062
2.525000 -72.539850 1358.532063 -0.000000 0.382432 0.252919 -0.106795 40.637031 -103.139714 -0.000000 0.115989 0.365663 -0.344411
2.530000 -47.994049 1370.865381 -0.000000 0.379424 0.245415 -0.106741 39.688844 -101.253699 -0.000000 0.119631 0.372873 -0.344629
2.535000 -24.665987 1379.523560 -0.000000 0.376206 0.238135 -0.106667 38.953519 -98.796706 -0.000000 0.123562 0.380026 -0.344757
2.540000 -2.764108 1384.723289 -0.000000 0.372862 0.230955 -0.106580 38.079360 -96.162921 -0.000000 0.127758 0.387134 -0.344752
2.545000 17.723079 1386.869967 -0.000000 0.369216 0.224066 -0.106433 36.729181 -93.614853 -0.000000 0.132263 0.394342 -0.345036
2.550000 36.369360 1386.565027 -0.000000 0.365349 0.217291 -0.106314 34.668125 -91.191186 -0.000000 0.137042 0.401482 -0.345214
2.555000 53.767146 1384.572351 -0.000000 0.361047 0.210646 -0.106490 31.726422 -88.749492 -0.000000 0.142148 0.408510 -0.345492
2.560000 69.451325 1381.812309 -0.000000 0.356541 0.204070 -0.106390 27.967641 -85.973694 -0.000000 0.147536 0.415410 -0.345559
2.565000 83.687367 1379.215108 -0.000000 0.351838 0.197717 -0.106196 23.541882 -82.465859 -0.000000 0.153170 0.422378 -0.345734
2.570000 95.803324 1377.664043 -0.000000 0.346750 0.191733 -0.106099 18.730311 -77.732914 -0.000000 0.159002 0.429019 -0.345881
2.575000 106.163192 1377.739457 -0.000000 0.341445 0.186098 -0.106168 13.771503 -71.245880 -0.000000 0.165002 0.435389 -0.346036
2.580000 115.980636 1379.543216 -0.000000 0.335778 0.180834 -0.106156 8.852149 -62.471560 -0.000000 0.171148 0.441465 -0.346117
2.585000 126.241794 1382.651302 -0.000000 0.329690 0.175845 -0.106003 4.143808 -50.931178 -0.000000 0.177576 0.446855 -0.346098
2.590000 138.299285 1386.021151 -0.000000 0.323289 0.171209 -0.105718 -0.238427 -36.292315 -0.000000 0.184169 0.452305 -0.346029
2.595000 154.698483 1387.902613 -0.000000 0.316713 0.166988 -0.105551 -4.195193 -18.450581 -0.000000 0.191732 0.457673 -0.347185
2.600000 168.798287 1387.075921 -0.000000 0.309924 0.163132 -0.105416 -7.498069 2.357607 -0.000000 0.198505 0.462992 -0.346413
2.605000 185.325472 1380.678364 -0.000000 0.302933 0.159480 -0.105177 -10.098451 25.571476 -0.000000 0.206003 0.467192 -0.346430
2.610000 200.764486 1366.463848 -0.000000 0.295935 0.156186 -0.105163 -11.915193 50.227268 -0.000000 0.213301 0.471116 -0.346411
2.615000 215.255081 1341.551621 -0.000000 0.288978 0.153415 -0.105131 -12.950251 75.026016 -0.000000 0.220640 0.474516 -0.346572
2.620000 228.696366 1303.132045 -0.000000 0.282027 0.151019 -0.105093 -13.317981 98.455571 -0.000000 0.227926 0.477799 -0.346671
2.625000 240.257595 1248.941392 -0.000000 0.275033 0.149333 -0.105048 -13.320170 119.081172 -0.000000 0.235121 0.480919 -0.346676
2.630000 249.093080 1177.607469 -0.000000 0.268028 0.148134 -0.104991 -13.369549 135.888414 -0.000000 0.242203 0.483653 -0.346796
2.635000 254.168774 1089.094919 -0.000000 0.261122 0.147469 -0.104912 -13.922707 148.462651 -0.000000 0.249166 0.486040 -0.347011
2.640000 254.894596 984.785735 -0.000000 0.254399 0.146716 -0.104847 -15.341782 156.959535 -0.000000 0.256027 0.487911 -0.347309
2.645000 251.375847 867.361399 -0.000000 0.247778 0.146876 -0.104746 -17.814712 161.978383 -0.000000 0.262737 0.489386 -0.347668
2.650000 244.612670 740.489787 -0.000000 0.241327 0.147084 -0.104694 -21.282676 164.488399 -0.000000 0.269589 0.490274 -0.348005
2.655000 235.532846 608.739361 -0.000000 0.234828 0.147939 -0.104544 -25.614041 165.767296 -0.000000 0.276363 0.490660 -0.348461
2.660000 225.708825 476.866459 -0.000000 0.228168 0.149341 -0.104443 -30.510047 167.321235 -0.000000 0.283057 0.490505 -0.348969
2.665000 217.290677 349.040778 -0.000000 0.221121 0.151357 -0.104447 -35.447983 170.766543 -0.000000 0.289830 0.489624 -0.349820
2.670000 211.484197 228.811671 -0.000000 0.213320 0.154107 -0.104448 -40.172574 177.595168 -0.000000 0.296239 0.488439 -0.350390
2.675000 209.240593 118.247058 -0.000000 0.204840 0.157812 -0.104473 -44.391821 189.114297 -0.000000 0.302368 0.486802 -0.350723
2.680000 210.365171 18.104075 -0.000000 0.195554 0.162271 -0.104614 -47.873557 206.357189 -0.000000 0.308232 0.484519 -0.351163
2.685000 213.384596 -71.247693 -0.000000 0.186342 0.167582 -0.104892 -50.844675 229.894605 -0.000000 0.314208 0.481779 -0.351676
2.690000 216.548182 -149.238515 -0.000000 0.177534 0.172834 -0.105135 -53.947818 259.708106 -0.000000 0.319942 0.478433 -0.352137
2.695000 217.845596 -215.646659 -0.000000 0.168988 0.178273 -0.106023 -57.064311 295.288973 -0.000000 0.325491 0.474573 -0.352536
2.700000 216.297309 -269.326215 -0.000000 0.161435 0.183574 -0.106557 -60.928564 335.338447 -0.000000 0.330819 0.470294 -0.352718
2.705000 211.362470 -309.954743 -0.000000 0.154659 0.188698 -0.107030 -65.660960 378.402139 -0.000000 0.335772 0.465566 -0.352906
2.710000 203.272536 -337.958594 -0.000000 0.148590 0.193682 -0.107360 -71.415050 423.124659 -0.000000 0.340350 0.460369 -0.353059
2.715000 192.472648 -354.909439 -0.000000 0.142789 0.198894 -0.107292 -77.859848 468.594712 -0.000000 0.344427 0.454637 -0.353307
2.720000 179.490322 -363.100324 -0.000000 0.137417 0.204412 -0.107478 -84.221315 514.402956 -0.000000 0.348721 0.448126 -0.353869
2.725000 165.647049 -364.632454 -0.000000 0.132242 0.210451 -0.107523 -90.544755 560.300663 -0.000000 0.352787 0.441018 -0.354472
2.730000 151.930434 -361.591518 -0.000000 0.127295 0.217127 -0.107566 -96.551780 606.111806 -0.000000 0.356821 0.433750 -0.354477
